<mxfile host="app.diagrams.net" modified="2023-12-13T09:41:43.009Z" agent="Mozilla/5.0 (Windows NT 10.0; Win64; x64) AppleWebKit/537.36 (KHTML, like Gecko) Chrome/120.0.0.0 Safari/537.36" version="22.1.8" etag="5P3VBbM2FigOb8XVfHvR" type="github">
  <diagram name="Page-1" id="y28atNg2f1xREJNrt48a">
    <mxGraphModel>
      <root>
        <mxCell id="0" />
        <mxCell id="1" parent="0" />
      </root>
    </mxGraphModel>
  </diagram>
</mxfile>
